<?xml version="1.0" standalone="no"?>
<!DOCTYPE svg PUBLIC "-//W3C//DTD SVG 20010904//EN"
 "http://www.w3.org/TR/2001/REC-SVG-20010904/DTD/svg10.dtd">
<svg version="1.0" xmlns="http://www.w3.org/2000/svg"
 width="745.000000pt" height="335.000000pt" viewBox="0 0 745.000000 335.000000"
 preserveAspectRatio="xMidYMid meet">

<g transform="translate(0.000000,335.000000) scale(0.100000,-0.100000)"
fill="#000000" stroke="none">
<path d="M340 2416 c0 -12 58 -15 348 -19 197 -3 368 -10 396 -16 110 -25 224
-102 276 -186 49 -79 64 -215 35 -311 -20 -65 -73 -134 -129 -170 -25 -16 -45
-32 -46 -36 0 -3 17 -12 38 -19 63 -20 138 -77 175 -132 55 -81 71 -141 65
-253 -5 -83 -10 -103 -42 -169 -42 -84 -113 -155 -200 -199 -93 -47 -176 -55
-554 -56 -322 0 -343 -1 -340 -17 3 -17 27 -18 343 -17 204 1 370 6 415 13
192 30 368 180 402 342 7 33 16 59 20 59 4 0 8 -95 8 -210 l0 -210 443 2 c385
3 442 5 442 18 0 13 -55 15 -421 18 l-422 2 -6 143 c-3 78 -8 313 -11 522 -3
209 -8 500 -11 648 -7 254 -8 267 -26 267 -17 0 -19 -5 -14 -42 10 -81 16
-1015 6 -975 -25 98 -98 197 -175 238 -25 13 -45 29 -45 35 0 6 11 21 25 34
116 109 148 319 72 467 -32 60 -126 151 -190 183 -109 53 -166 60 -539 60
-284 0 -338 -2 -338 -14z"/>
<path d="M1874 1953 c3 -263 9 -560 13 -660 l6 -183 268 0 269 0 0 75 0 75
-182 0 c-101 0 -188 4 -194 8 -8 5 -14 166 -18 557 -4 303 -9 562 -12 578 -6
27 -7 27 -81 27 l-76 0 7 -477z"/>
<path d="M4356 2414 c-89 -17 -255 -99 -326 -159 -117 -101 -198 -218 -245
-356 -120 -350 17 -739 330 -944 153 -101 267 -135 450 -135 247 0 410 66 575
230 108 108 180 231 205 348 6 29 4 33 -10 30 -11 -2 -24 -23 -35 -58 -71
-230 -247 -405 -485 -486 -107 -36 -282 -45 -403 -20 -243 49 -439 201 -554
430 -59 116 -80 209 -81 346 -1 137 15 206 78 335 124 256 353 406 645 422
363 20 685 -196 795 -535 11 -32 23 -52 32 -52 35 0 -20 147 -98 261 -120 178
-302 301 -508 345 -83 17 -274 17 -365 -2z"/>
<path d="M5340 2413 c0 -10 7 -360 15 -778 8 -418 15 -775 15 -793 0 -25 4
-33 16 -30 19 4 19 99 4 868 -5 250 -10 521 -10 603 0 140 -1 147 -20 147 -12
0 -20 -7 -20 -17z"/>
<path d="M5643 2273 c4 -87 7 -238 7 -335 0 -98 3 -178 8 -177 4 0 78 76 165
167 86 92 229 241 316 332 l158 165 -110 3 -110 3 -133 -138 -133 -138 0 76
c-1 42 -4 104 -7 138 l-7 61 -80 0 -80 0 6 -157z"/>
<path d="M6245 2033 c-209 -218 -381 -399 -383 -403 -3 -7 809 -798 835 -813
7 -5 21 -7 30 -5 10 2 -134 148 -401 406 -229 222 -416 406 -416 409 0 6 377
399 617 644 79 80 143 149 143 152 0 4 -10 7 -22 6 -17 0 -132 -113 -403 -396z"/>
<path d="M3020 2303 c-23 -60 -86 -223 -140 -363 -183 -477 -368 -955 -399
-1033 -17 -43 -29 -83 -26 -88 10 -16 25 -10 34 14 33 82 500 1293 533 1380
39 104 50 121 61 95 258 -624 620 -1475 632 -1487 27 -27 29 -1 5 57 -13 31
-67 161 -121 287 -53 127 -167 399 -254 605 -248 592 -269 640 -276 640 -4 0
-26 -48 -49 -107z"/>
<path d="M4437 2139 c-74 -17 -152 -62 -213 -123 -255 -255 -179 -714 145
-874 74 -37 76 -37 200 -37 119 0 129 2 186 29 33 17 82 50 109 75 48 45 126
153 126 175 0 7 -29 26 -65 44 l-65 32 -25 -40 c-91 -144 -239 -202 -379 -150
-248 94 -309 470 -106 653 146 132 389 76 484 -110 l16 -32 67 28 c78 32 79
38 32 112 -43 67 -140 156 -202 184 -91 42 -217 56 -310 34z"/>
<path d="M342 2063 l3 -78 305 -5 c168 -3 306 -7 308 -8 2 -1 2 -16 0 -34 -2
-25 -9 -34 -28 -39 -14 -4 -150 -7 -302 -8 l-278 -1 0 -76 0 -75 323 3 324 3
41 28 c54 35 82 90 82 161 0 68 -12 102 -53 144 -54 56 -94 62 -429 62 l-299
0 3 -77z"/>
<path d="M3071 1548 c-27 -73 -140 -370 -200 -528 -39 -102 -71 -188 -71 -193
0 -4 37 -7 82 -5 l83 3 60 157 c33 87 64 157 68 155 5 -1 37 -72 72 -157 l63
-155 85 -3 86 -3 -36 88 c-19 48 -65 160 -103 248 -37 88 -91 217 -120 288
-29 70 -54 127 -56 127 -3 0 -8 -10 -13 -22z"/>
<path d="M633 1552 l-283 -2 0 -75 0 -74 328 -3 c369 -3 375 -4 370 -66 -5
-60 -13 -62 -370 -62 l-318 0 0 -80 0 -80 323 0 c344 0 383 4 447 50 97 69
106 243 16 332 -61 60 -99 64 -513 60z"/>
<path d="M5660 1333 c0 -65 3 -209 7 -321 l6 -203 76 3 76 3 3 123 c1 67 6
122 10 122 4 0 63 -56 132 -125 l125 -125 108 0 c60 0 107 3 105 8 -5 12 -634
632 -641 632 -4 0 -7 -53 -7 -117z"/>
<path d="M3160 450 l0 -140 80 0 c64 0 80 3 80 15 0 12 -14 15 -65 15 l-65 0
0 125 c0 104 -2 125 -15 125 -13 0 -15 -22 -15 -140z"/>
<path d="M3370 450 c0 -118 2 -140 15 -140 13 0 15 22 15 140 0 118 -2 140
-15 140 -13 0 -15 -22 -15 -140z"/>
<path d="M3480 450 c0 -120 2 -140 16 -140 13 0 15 16 12 115 -2 63 -1 115 2
115 3 -1 35 -51 71 -113 92 -156 99 -154 99 22 0 122 -2 141 -16 141 -14 0
-15 -15 -12 -114 1 -63 0 -113 -3 -111 -3 2 -35 54 -70 114 -90 155 -99 153
-99 -29z"/>
<path d="M3760 450 c0 -130 1 -140 19 -140 16 0 18 6 14 43 -4 35 0 47 24 75
l28 33 45 -75 c30 -52 50 -76 63 -76 18 0 18 2 5 23 -42 65 -88 146 -88 153 0
4 18 29 41 56 34 40 37 48 21 48 -12 0 -42 -27 -78 -72 l-59 -73 -3 73 c-2 55
-6 72 -17 72 -12 0 -15 -24 -15 -140z"/>
</g>
</svg>
